<svg width="60" height="60" viewBox="0 0 60 60" fill="none" xmlns="http://www.w3.org/2000/svg">
<path fill-rule="evenodd" clip-rule="evenodd" d="M0 29.7922C0 13.3384 13.5462 0 30 0V0C46.4538 0 60 13.3384 60 29.7922V29.7922C60 46.2459 46.4538 59.5843 30 59.5843V59.5843C13.5462 59.5843 0 46.2459 0 29.7922V29.7922Z" fill="#00DDB5"/>
<path fill-rule="evenodd" clip-rule="evenodd" d="M12 12.0235L12.2011 48.1782L22.8603 12.0239L12 12.0235ZM47.9485 11.9263V48.1782L37.0884 11.9265L47.9485 11.9263ZM30.1005 17.7L35.8447 36.4634H24.2885L30.1005 17.7ZM24.2885 45.5525L30.1005 40.5L35.8447 45.5525V48.1782H24.2885V45.5525ZM23.0616 50.198H12.2011L12.2011 48.1782H23.0616V50.198ZM48 50.4H36.9386V48.1782H42.4326H47.9485L48 50.4ZM36.4116 11.62H23.7412V9.59998H36.4116V11.62Z" fill="#3D39C5"/>
</svg>
