<svg width="40" height="40" viewBox="0 0 40 40" fill="none" xmlns="http://www.w3.org/2000/svg">
<path fill-rule="evenodd" clip-rule="evenodd" d="M0 19.8614C0 8.89226 9.03083 0 20 0V0C30.9692 0 40 8.89226 40 19.8614V19.8614C40 30.8306 30.9692 39.7229 20 39.7229V39.7229C9.03083 39.7229 0 30.8306 0 19.8614V19.8614Z" fill="#00DDB5"/>
<path fill-rule="evenodd" clip-rule="evenodd" d="M8 8.28235L8.13408 32.3855L15.2402 8.28262L8 8.28235ZM31.9657 8.21751V32.3855L24.7256 8.21765L31.9657 8.21751ZM20.067 12.0667L23.8964 24.5756H16.1923L20.067 12.0667ZM16.1923 30.635L20.067 27.2667L23.8964 30.635V32.3855H16.1923V30.635ZM15.3744 33.732H8.13408L8.13408 32.3855H15.3744V33.732ZM32 33.8667H24.6257V32.3855H28.2884H31.9657L32 33.8667ZM24.2744 8.01334H15.8275V6.66666H24.2744V8.01334Z" fill="#3D39C5"/>
</svg>
